<svg width="2200" height="800" viewBox="0 0 2200 800" fill="none" xmlns="http://www.w3.org/2000/svg">
<rect x="1027" y="477" width="96" height="96" fill="#01BBF8"/>
<rect x="1027" y="477" width="96" height="96" stroke="#01BBF8" stroke-width="4"/>
<rect x="1027" y="477" width="96" height="96" stroke="black" stroke-opacity="0.1" stroke-width="4"/>
<rect x="1042.5" y="492.487" width="65.3333" height="65.2871" fill="#01BBF8"/>
<rect x="1042.5" y="492.487" width="65.3333" height="65.2871" fill="white" fill-opacity="0.2"/>
<rect x="1027" y="577" width="96" height="96" fill="#01BBF8"/>
<rect x="1027" y="577" width="96" height="96" stroke="#01BBF8" stroke-width="4"/>
<rect x="1027" y="577" width="96" height="96" stroke="black" stroke-opacity="0.1" stroke-width="4"/>
<rect x="1042.5" y="592.487" width="65.3333" height="65.2871" fill="#01BBF8"/>
<rect x="1042.5" y="592.487" width="65.3333" height="65.2871" fill="white" fill-opacity="0.2"/>
<rect x="1227" y="677" width="96" height="96" fill="#01BBF8"/>
<rect x="1227" y="677" width="96" height="96" stroke="#01BBF8" stroke-width="4"/>
<rect x="1227" y="677" width="96" height="96" stroke="black" stroke-opacity="0.1" stroke-width="4"/>
<rect x="1242.5" y="692.487" width="65.3333" height="65.2871" fill="#01BBF8"/>
<rect x="1242.5" y="692.487" width="65.3333" height="65.2871" fill="white" fill-opacity="0.2"/>
<rect x="1127" y="677" width="96" height="96" fill="#01BBF8"/>
<rect x="1127" y="677" width="96" height="96" stroke="#01BBF8" stroke-width="4"/>
<rect x="1127" y="677" width="96" height="96" stroke="black" stroke-opacity="0.1" stroke-width="4"/>
<rect x="1142.5" y="692.487" width="65.3333" height="65.2871" fill="#01BBF8"/>
<rect x="1142.5" y="692.487" width="65.3333" height="65.2871" fill="white" fill-opacity="0.2"/>
<rect x="1127" y="277" width="96" height="96" fill="#01BBF8"/>
<rect x="1127" y="277" width="96" height="96" stroke="#01BBF8" stroke-width="4"/>
<rect x="1127" y="277" width="96" height="96" stroke="black" stroke-opacity="0.1" stroke-width="4"/>
<rect x="1142.5" y="292.487" width="65.3333" height="65.2871" fill="#01BBF8"/>
<rect x="1142.5" y="292.487" width="65.3333" height="65.2871" fill="white" fill-opacity="0.2"/>
<rect x="1027" y="377" width="96" height="96" fill="#01BBF8"/>
<rect x="1027" y="377" width="96" height="96" stroke="#01BBF8" stroke-width="4"/>
<rect x="1027" y="377" width="96" height="96" stroke="black" stroke-opacity="0.1" stroke-width="4"/>
<rect x="1042.5" y="392.487" width="65.3333" height="65.2871" fill="#01BBF8"/>
<rect x="1042.5" y="392.487" width="65.3333" height="65.2871" fill="white" fill-opacity="0.2"/>
<rect x="1227" y="277" width="96" height="96" fill="#01BBF8"/>
<rect x="1227" y="277" width="96" height="96" stroke="#01BBF8" stroke-width="4"/>
<rect x="1227" y="277" width="96" height="96" stroke="black" stroke-opacity="0.1" stroke-width="4"/>
<rect x="1242.5" y="292.487" width="65.3333" height="65.2871" fill="#01BBF8"/>
<rect x="1242.5" y="292.487" width="65.3333" height="65.2871" fill="white" fill-opacity="0.2"/>
<rect x="677" y="477" width="96" height="96" fill="#01BBF8"/>
<rect x="677" y="477" width="96" height="96" stroke="#01BBF8" stroke-width="4"/>
<rect x="677" y="477" width="96" height="96" stroke="black" stroke-opacity="0.1" stroke-width="4"/>
<rect x="692.5" y="492.487" width="65.3333" height="65.2871" fill="#01BBF8"/>
<rect x="692.5" y="492.487" width="65.3333" height="65.2871" fill="white" fill-opacity="0.2"/>
<rect x="677" y="577" width="96" height="96" fill="#01BBF8"/>
<rect x="677" y="577" width="96" height="96" stroke="#01BBF8" stroke-width="4"/>
<rect x="677" y="577" width="96" height="96" stroke="black" stroke-opacity="0.1" stroke-width="4"/>
<rect x="692.5" y="592.487" width="65.3333" height="65.2871" fill="#01BBF8"/>
<rect x="692.5" y="592.487" width="65.3333" height="65.2871" fill="white" fill-opacity="0.2"/>
<rect x="677" y="677" width="96" height="96" fill="#01BBF8"/>
<rect x="677" y="677" width="96" height="96" stroke="#01BBF8" stroke-width="4"/>
<rect x="677" y="677" width="96" height="96" stroke="black" stroke-opacity="0.1" stroke-width="4"/>
<rect x="692.5" y="692.487" width="65.3333" height="65.2871" fill="#01BBF8"/>
<rect x="692.5" y="692.487" width="65.3333" height="65.2871" fill="white" fill-opacity="0.2"/>
<rect x="777" y="677" width="96" height="96" fill="#01BBF8"/>
<rect x="777" y="677" width="96" height="96" stroke="#01BBF8" stroke-width="4"/>
<rect x="777" y="677" width="96" height="96" stroke="black" stroke-opacity="0.1" stroke-width="4"/>
<rect x="792.5" y="692.487" width="65.3333" height="65.2871" fill="#01BBF8"/>
<rect x="792.5" y="692.487" width="65.3333" height="65.2871" fill="white" fill-opacity="0.2"/>
<rect x="877" y="677" width="96" height="96" fill="#01BBF8"/>
<rect x="877" y="677" width="96" height="96" stroke="#01BBF8" stroke-width="4"/>
<rect x="877" y="677" width="96" height="96" stroke="black" stroke-opacity="0.1" stroke-width="4"/>
<rect x="892.5" y="692.487" width="65.3333" height="65.2871" fill="#01BBF8"/>
<rect x="892.5" y="692.487" width="65.3333" height="65.2871" fill="white" fill-opacity="0.2"/>
<rect x="777" y="477" width="96" height="96" fill="#01BBF8"/>
<rect x="777" y="477" width="96" height="96" stroke="#01BBF8" stroke-width="4"/>
<rect x="777" y="477" width="96" height="96" stroke="black" stroke-opacity="0.1" stroke-width="4"/>
<rect x="792.5" y="492.487" width="65.3333" height="65.2871" fill="#01BBF8"/>
<rect x="792.5" y="492.487" width="65.3333" height="65.2871" fill="white" fill-opacity="0.2"/>
<rect x="677" y="377" width="96" height="96" fill="#01BBF8"/>
<rect x="677" y="377" width="96" height="96" stroke="#01BBF8" stroke-width="4"/>
<rect x="677" y="377" width="96" height="96" stroke="black" stroke-opacity="0.1" stroke-width="4"/>
<rect x="692.5" y="392.487" width="65.3333" height="65.2871" fill="#01BBF8"/>
<rect x="692.5" y="392.487" width="65.3333" height="65.2871" fill="white" fill-opacity="0.2"/>
<rect x="677" y="277" width="96" height="96" fill="#01BBF8"/>
<rect x="677" y="277" width="96" height="96" stroke="#01BBF8" stroke-width="4"/>
<rect x="677" y="277" width="96" height="96" stroke="black" stroke-opacity="0.1" stroke-width="4"/>
<rect x="692.5" y="292.487" width="65.3333" height="65.2871" fill="#01BBF8"/>
<rect x="692.5" y="292.487" width="65.3333" height="65.2871" fill="white" fill-opacity="0.2"/>
<rect x="777" y="277" width="96" height="96" fill="#01BBF8"/>
<rect x="777" y="277" width="96" height="96" stroke="#01BBF8" stroke-width="4"/>
<rect x="777" y="277" width="96" height="96" stroke="black" stroke-opacity="0.1" stroke-width="4"/>
<rect x="792.5" y="292.487" width="65.3333" height="65.2871" fill="#01BBF8"/>
<rect x="792.5" y="292.487" width="65.3333" height="65.2871" fill="white" fill-opacity="0.2"/>
<rect x="877" y="277" width="96" height="96" fill="#01BBF8"/>
<rect x="877" y="277" width="96" height="96" stroke="#01BBF8" stroke-width="4"/>
<rect x="877" y="277" width="96" height="96" stroke="black" stroke-opacity="0.1" stroke-width="4"/>
<rect x="892.5" y="292.487" width="65.3333" height="65.2871" fill="#01BBF8"/>
<rect x="892.5" y="292.487" width="65.3333" height="65.2871" fill="white" fill-opacity="0.2"/>
<rect x="1377" y="477" width="96" height="96" fill="#01BBF8"/>
<rect x="1377" y="477" width="96" height="96" stroke="#01BBF8" stroke-width="4"/>
<rect x="1377" y="477" width="96" height="96" stroke="black" stroke-opacity="0.1" stroke-width="4"/>
<rect x="1392.5" y="492.487" width="65.3333" height="65.2871" fill="#01BBF8"/>
<rect x="1392.5" y="492.487" width="65.3333" height="65.2871" fill="white" fill-opacity="0.2"/>
<rect x="1377" y="577" width="96" height="96" fill="#01BBF8"/>
<rect x="1377" y="577" width="96" height="96" stroke="#01BBF8" stroke-width="4"/>
<rect x="1377" y="577" width="96" height="96" stroke="black" stroke-opacity="0.1" stroke-width="4"/>
<rect x="1392.5" y="592.487" width="65.3333" height="65.2871" fill="#01BBF8"/>
<rect x="1392.5" y="592.487" width="65.3333" height="65.2871" fill="white" fill-opacity="0.2"/>
<rect x="1377" y="677" width="96" height="96" fill="#01BBF8"/>
<rect x="1377" y="677" width="96" height="96" stroke="#01BBF8" stroke-width="4"/>
<rect x="1377" y="677" width="96" height="96" stroke="black" stroke-opacity="0.1" stroke-width="4"/>
<rect x="1392.5" y="692.487" width="65.3333" height="65.2871" fill="#01BBF8"/>
<rect x="1392.5" y="692.487" width="65.3333" height="65.2871" fill="white" fill-opacity="0.2"/>
<rect x="1477" y="677" width="96" height="96" fill="#01BBF8"/>
<rect x="1477" y="677" width="96" height="96" stroke="#01BBF8" stroke-width="4"/>
<rect x="1477" y="677" width="96" height="96" stroke="black" stroke-opacity="0.1" stroke-width="4"/>
<rect x="1492.5" y="692.487" width="65.3333" height="65.2871" fill="#01BBF8"/>
<rect x="1492.5" y="692.487" width="65.3333" height="65.2871" fill="white" fill-opacity="0.2"/>
<rect x="1577" y="677" width="96" height="96" fill="#01BBF8"/>
<rect x="1577" y="677" width="96" height="96" stroke="#01BBF8" stroke-width="4"/>
<rect x="1577" y="677" width="96" height="96" stroke="black" stroke-opacity="0.1" stroke-width="4"/>
<rect x="1592.5" y="692.487" width="65.3333" height="65.2871" fill="#01BBF8"/>
<rect x="1592.5" y="692.487" width="65.3333" height="65.2871" fill="white" fill-opacity="0.2"/>
<rect x="1477" y="477" width="96" height="96" fill="#01BBF8"/>
<rect x="1477" y="477" width="96" height="96" stroke="#01BBF8" stroke-width="4"/>
<rect x="1477" y="477" width="96" height="96" stroke="black" stroke-opacity="0.1" stroke-width="4"/>
<rect x="1492.5" y="492.487" width="65.3333" height="65.2871" fill="#01BBF8"/>
<rect x="1492.5" y="492.487" width="65.3333" height="65.2871" fill="white" fill-opacity="0.2"/>
<rect x="1377" y="377" width="96" height="96" fill="#01BBF8"/>
<rect x="1377" y="377" width="96" height="96" stroke="#01BBF8" stroke-width="4"/>
<rect x="1377" y="377" width="96" height="96" stroke="black" stroke-opacity="0.1" stroke-width="4"/>
<rect x="1392.5" y="392.487" width="65.3333" height="65.2871" fill="#01BBF8"/>
<rect x="1392.5" y="392.487" width="65.3333" height="65.2871" fill="white" fill-opacity="0.2"/>
<rect x="1377" y="277" width="96" height="96" fill="#01BBF8"/>
<rect x="1377" y="277" width="96" height="96" stroke="#01BBF8" stroke-width="4"/>
<rect x="1377" y="277" width="96" height="96" stroke="black" stroke-opacity="0.1" stroke-width="4"/>
<rect x="1392.5" y="292.487" width="65.3333" height="65.2871" fill="#01BBF8"/>
<rect x="1392.5" y="292.487" width="65.3333" height="65.2871" fill="white" fill-opacity="0.2"/>
<rect x="1477" y="277" width="96" height="96" fill="#01BBF8"/>
<rect x="1477" y="277" width="96" height="96" stroke="#01BBF8" stroke-width="4"/>
<rect x="1477" y="277" width="96" height="96" stroke="black" stroke-opacity="0.1" stroke-width="4"/>
<rect x="1492.5" y="292.487" width="65.3333" height="65.2871" fill="#01BBF8"/>
<rect x="1492.5" y="292.487" width="65.3333" height="65.2871" fill="white" fill-opacity="0.2"/>
<rect x="1577" y="277" width="96" height="96" fill="#01BBF8"/>
<rect x="1577" y="277" width="96" height="96" stroke="#01BBF8" stroke-width="4"/>
<rect x="1577" y="277" width="96" height="96" stroke="black" stroke-opacity="0.1" stroke-width="4"/>
<rect x="1592.5" y="292.487" width="65.3333" height="65.2871" fill="#01BBF8"/>
<rect x="1592.5" y="292.487" width="65.3333" height="65.2871" fill="white" fill-opacity="0.2"/>
<rect x="1727" y="477" width="96" height="96" fill="#01BBF8"/>
<rect x="1727" y="477" width="96" height="96" stroke="#01BBF8" stroke-width="4"/>
<rect x="1727" y="477" width="96" height="96" stroke="black" stroke-opacity="0.1" stroke-width="4"/>
<rect x="1742.5" y="492.487" width="65.3333" height="65.2871" fill="#01BBF8"/>
<rect x="1742.5" y="492.487" width="65.3333" height="65.2871" fill="white" fill-opacity="0.2"/>
<rect x="1927" y="577" width="96" height="96" fill="#01BBF8"/>
<rect x="1927" y="577" width="96" height="96" stroke="#01BBF8" stroke-width="4"/>
<rect x="1927" y="577" width="96" height="96" stroke="black" stroke-opacity="0.1" stroke-width="4"/>
<rect x="1942.5" y="592.487" width="65.3333" height="65.2871" fill="#01BBF8"/>
<rect x="1942.5" y="592.487" width="65.3333" height="65.2871" fill="white" fill-opacity="0.2"/>
<rect x="1727" y="677" width="96" height="96" fill="#01BBF8"/>
<rect x="1727" y="677" width="96" height="96" stroke="#01BBF8" stroke-width="4"/>
<rect x="1727" y="677" width="96" height="96" stroke="black" stroke-opacity="0.1" stroke-width="4"/>
<rect x="1742.5" y="692.487" width="65.3333" height="65.2871" fill="#01BBF8"/>
<rect x="1742.5" y="692.487" width="65.3333" height="65.2871" fill="white" fill-opacity="0.2"/>
<rect x="1827" y="677" width="96" height="96" fill="#01BBF8"/>
<rect x="1827" y="677" width="96" height="96" stroke="#01BBF8" stroke-width="4"/>
<rect x="1827" y="677" width="96" height="96" stroke="black" stroke-opacity="0.1" stroke-width="4"/>
<rect x="1842.5" y="692.487" width="65.3333" height="65.2871" fill="#01BBF8"/>
<rect x="1842.5" y="692.487" width="65.3333" height="65.2871" fill="white" fill-opacity="0.2"/>
<rect x="1927" y="677" width="96" height="96" fill="#01BBF8"/>
<rect x="1927" y="677" width="96" height="96" stroke="#01BBF8" stroke-width="4"/>
<rect x="1927" y="677" width="96" height="96" stroke="black" stroke-opacity="0.1" stroke-width="4"/>
<rect x="1942.5" y="692.487" width="65.3333" height="65.2871" fill="#01BBF8"/>
<rect x="1942.5" y="692.487" width="65.3333" height="65.2871" fill="white" fill-opacity="0.2"/>
<rect x="1827" y="477" width="96" height="96" fill="#01BBF8"/>
<rect x="1827" y="477" width="96" height="96" stroke="#01BBF8" stroke-width="4"/>
<rect x="1827" y="477" width="96" height="96" stroke="black" stroke-opacity="0.1" stroke-width="4"/>
<rect x="1842.5" y="492.487" width="65.3333" height="65.2871" fill="#01BBF8"/>
<rect x="1842.5" y="492.487" width="65.3333" height="65.2871" fill="white" fill-opacity="0.2"/>
<rect x="1927" y="477" width="96" height="96" fill="#01BBF8"/>
<rect x="1927" y="477" width="96" height="96" stroke="#01BBF8" stroke-width="4"/>
<rect x="1927" y="477" width="96" height="96" stroke="black" stroke-opacity="0.1" stroke-width="4"/>
<rect x="1942.5" y="492.487" width="65.3333" height="65.2871" fill="#01BBF8"/>
<rect x="1942.5" y="492.487" width="65.3333" height="65.2871" fill="white" fill-opacity="0.2"/>
<rect x="1727" y="377" width="96" height="96" fill="#01BBF8"/>
<rect x="1727" y="377" width="96" height="96" stroke="#01BBF8" stroke-width="4"/>
<rect x="1727" y="377" width="96" height="96" stroke="black" stroke-opacity="0.1" stroke-width="4"/>
<rect x="1742.5" y="392.487" width="65.3333" height="65.2871" fill="#01BBF8"/>
<rect x="1742.5" y="392.487" width="65.3333" height="65.2871" fill="white" fill-opacity="0.2"/>
<rect x="1727" y="277" width="96" height="96" fill="#01BBF8"/>
<rect x="1727" y="277" width="96" height="96" stroke="#01BBF8" stroke-width="4"/>
<rect x="1727" y="277" width="96" height="96" stroke="black" stroke-opacity="0.1" stroke-width="4"/>
<rect x="1742.5" y="292.487" width="65.3333" height="65.2871" fill="#01BBF8"/>
<rect x="1742.5" y="292.487" width="65.3333" height="65.2871" fill="white" fill-opacity="0.2"/>
<rect x="1827" y="277" width="96" height="96" fill="#01BBF8"/>
<rect x="1827" y="277" width="96" height="96" stroke="#01BBF8" stroke-width="4"/>
<rect x="1827" y="277" width="96" height="96" stroke="black" stroke-opacity="0.1" stroke-width="4"/>
<rect x="1842.5" y="292.487" width="65.3333" height="65.2871" fill="#01BBF8"/>
<rect x="1842.5" y="292.487" width="65.3333" height="65.2871" fill="white" fill-opacity="0.2"/>
<rect x="1927" y="277" width="96" height="96" fill="#01BBF8"/>
<rect x="1927" y="277" width="96" height="96" stroke="#01BBF8" stroke-width="4"/>
<rect x="1927" y="277" width="96" height="96" stroke="black" stroke-opacity="0.1" stroke-width="4"/>
<rect x="1942.5" y="292.487" width="65.3333" height="65.2871" fill="#01BBF8"/>
<rect x="1942.5" y="292.487" width="65.3333" height="65.2871" fill="white" fill-opacity="0.2"/>
<rect x="527" y="477" width="96" height="96" fill="#01BBF8"/>
<rect x="527" y="477" width="96" height="96" stroke="#01BBF8" stroke-width="4"/>
<rect x="527" y="477" width="96" height="96" stroke="black" stroke-opacity="0.1" stroke-width="4"/>
<rect x="542.5" y="492.487" width="65.3333" height="65.2871" fill="#01BBF8"/>
<rect x="542.5" y="492.487" width="65.3333" height="65.2871" fill="white" fill-opacity="0.2"/>
<rect x="527" y="277" width="96" height="96" fill="#01BBF8"/>
<rect x="527" y="277" width="96" height="96" stroke="#01BBF8" stroke-width="4"/>
<rect x="527" y="277" width="96" height="96" stroke="black" stroke-opacity="0.1" stroke-width="4"/>
<rect x="542.5" y="292.487" width="65.3333" height="65.2871" fill="#01BBF8"/>
<rect x="542.5" y="292.487" width="65.3333" height="65.2871" fill="white" fill-opacity="0.2"/>
<rect x="527" y="577" width="96" height="96" fill="#01BBF8"/>
<rect x="527" y="577" width="96" height="96" stroke="#01BBF8" stroke-width="4"/>
<rect x="527" y="577" width="96" height="96" stroke="black" stroke-opacity="0.1" stroke-width="4"/>
<rect x="542.5" y="592.487" width="65.3333" height="65.2871" fill="#01BBF8"/>
<rect x="542.5" y="592.487" width="65.3333" height="65.2871" fill="white" fill-opacity="0.2"/>
<rect x="527" y="677" width="96" height="96" fill="#01BBF8"/>
<rect x="527" y="677" width="96" height="96" stroke="#01BBF8" stroke-width="4"/>
<rect x="527" y="677" width="96" height="96" stroke="black" stroke-opacity="0.1" stroke-width="4"/>
<rect x="542.5" y="692.487" width="65.3333" height="65.2871" fill="#01BBF8"/>
<rect x="542.5" y="692.487" width="65.3333" height="65.2871" fill="white" fill-opacity="0.2"/>
<rect x="2173" y="573" width="96" height="96" transform="rotate(-180 2173 573)" fill="#01BBF8"/>
<rect x="2173" y="573" width="96" height="96" transform="rotate(-180 2173 573)" stroke="#01BBF8" stroke-width="4"/>
<rect x="2173" y="573" width="96" height="96" transform="rotate(-180 2173 573)" stroke="black" stroke-opacity="0.1" stroke-width="4"/>
<rect x="2157.5" y="557.513" width="65.3333" height="65.2871" transform="rotate(-180 2157.5 557.513)" fill="#01BBF8"/>
<rect x="2157.5" y="557.513" width="65.3333" height="65.2871" transform="rotate(-180 2157.5 557.513)" fill="white" fill-opacity="0.2"/>
<rect x="2173" y="773" width="96" height="96" transform="rotate(-180 2173 773)" fill="#01BBF8"/>
<rect x="2173" y="773" width="96" height="96" transform="rotate(-180 2173 773)" stroke="#01BBF8" stroke-width="4"/>
<rect x="2173" y="773" width="96" height="96" transform="rotate(-180 2173 773)" stroke="black" stroke-opacity="0.1" stroke-width="4"/>
<rect x="2157.5" y="757.513" width="65.3333" height="65.2871" transform="rotate(-180 2157.5 757.513)" fill="#01BBF8"/>
<rect x="2157.5" y="757.513" width="65.3333" height="65.2871" transform="rotate(-180 2157.5 757.513)" fill="white" fill-opacity="0.2"/>
<rect x="2173" y="473" width="96" height="96" transform="rotate(-180 2173 473)" fill="#01BBF8"/>
<rect x="2173" y="473" width="96" height="96" transform="rotate(-180 2173 473)" stroke="#01BBF8" stroke-width="4"/>
<rect x="2173" y="473" width="96" height="96" transform="rotate(-180 2173 473)" stroke="black" stroke-opacity="0.1" stroke-width="4"/>
<rect x="2157.5" y="457.513" width="65.3333" height="65.2871" transform="rotate(-180 2157.5 457.513)" fill="#01BBF8"/>
<rect x="2157.5" y="457.513" width="65.3333" height="65.2871" transform="rotate(-180 2157.5 457.513)" fill="white" fill-opacity="0.2"/>
<rect x="2173" y="373" width="96" height="96" transform="rotate(-180 2173 373)" fill="#01BBF8"/>
<rect x="2173" y="373" width="96" height="96" transform="rotate(-180 2173 373)" stroke="#01BBF8" stroke-width="4"/>
<rect x="2173" y="373" width="96" height="96" transform="rotate(-180 2173 373)" stroke="black" stroke-opacity="0.1" stroke-width="4"/>
<rect x="2157.5" y="357.513" width="65.3333" height="65.2871" transform="rotate(-180 2157.5 357.513)" fill="#01BBF8"/>
<rect x="2157.5" y="357.513" width="65.3333" height="65.2871" transform="rotate(-180 2157.5 357.513)" fill="white" fill-opacity="0.2"/>
<rect x="27" y="477" width="146" height="296" fill="#CA8C19"/>
<rect x="27" y="477" width="146" height="296" stroke="#CA8C19" stroke-width="4"/>
<rect x="27" y="477" width="146" height="296" stroke="black" stroke-opacity="0.1" stroke-width="4"/>
<rect x="51.2537" y="501.148" width="98.0002" height="247.674" fill="#CA8C19"/>
<rect x="51.2537" y="501.148" width="98.0002" height="247.674" fill="white" fill-opacity="0.2"/>
<rect x="323" y="327" width="146" height="296" transform="rotate(90 323 327)" fill="#CA8C19"/>
<rect x="323" y="327" width="146" height="296" transform="rotate(90 323 327)" stroke="#CA8C19" stroke-width="4"/>
<rect x="323" y="327" width="146" height="296" transform="rotate(90 323 327)" stroke="black" stroke-opacity="0.1" stroke-width="4"/>
<rect x="298.852" y="351.253" width="98.0002" height="247.674" transform="rotate(90 298.852 351.253)" fill="#CA8C19"/>
<rect x="298.852" y="351.253" width="98.0002" height="247.674" transform="rotate(90 298.852 351.253)" fill="white" fill-opacity="0.2"/>
<rect x="473" y="27" width="146" height="296" transform="rotate(90 473 27)" fill="#CA8C19"/>
<rect x="473" y="27" width="146" height="296" transform="rotate(90 473 27)" stroke="#CA8C19" stroke-width="4"/>
<rect x="473" y="27" width="146" height="296" transform="rotate(90 473 27)" stroke="black" stroke-opacity="0.1" stroke-width="4"/>
<rect x="448.852" y="51.2534" width="98.0002" height="247.674" transform="rotate(90 448.852 51.2534)" fill="#CA8C19"/>
<rect x="448.852" y="51.2534" width="98.0002" height="247.674" transform="rotate(90 448.852 51.2534)" fill="white" fill-opacity="0.2"/>
<rect x="473" y="473" width="146" height="296" transform="rotate(-180 473 473)" fill="#CA8C19"/>
<rect x="473" y="473" width="146" height="296" transform="rotate(-180 473 473)" stroke="#CA8C19" stroke-width="4"/>
<rect x="473" y="473" width="146" height="296" transform="rotate(-180 473 473)" stroke="black" stroke-opacity="0.1" stroke-width="4"/>
<rect x="448.746" y="448.852" width="98.0002" height="247.674" transform="rotate(-180 448.746 448.852)" fill="#CA8C19"/>
<rect x="448.746" y="448.852" width="98.0002" height="247.674" transform="rotate(-180 448.746 448.852)" fill="white" fill-opacity="0.2"/>
<rect x="173" y="323" width="146" height="296" transform="rotate(-180 173 323)" fill="#CA8C19"/>
<rect x="173" y="323" width="146" height="296" transform="rotate(-180 173 323)" stroke="#CA8C19" stroke-width="4"/>
<rect x="173" y="323" width="146" height="296" transform="rotate(-180 173 323)" stroke="black" stroke-opacity="0.1" stroke-width="4"/>
<rect x="148.746" y="298.852" width="98.0002" height="247.674" transform="rotate(-180 148.746 298.852)" fill="#CA8C19"/>
<rect x="148.746" y="298.852" width="98.0002" height="247.674" transform="rotate(-180 148.746 298.852)" fill="white" fill-opacity="0.2"/>
</svg>
